<svg width="12" height="21" viewBox="0 0 12 21" fill="none" xmlns="http://www.w3.org/2000/svg">
<path d="M4.64086 10.4559L11.4414 3.4C11.7992 3.02655 12 2.52137 12 1.99479C12 1.46822 11.7992 0.963036 11.4414 0.589585C11.2628 0.402766 11.0503 0.254483 10.8162 0.15329C10.5821 0.0520983 10.331 0 10.0774 0C9.82383 0 9.57274 0.0520983 9.33864 0.15329C9.10454 0.254483 8.89207 0.402766 8.71349 0.589585L0.568243 9.04076C0.388186 9.22605 0.245271 9.4465 0.147742 9.68939C0.0502133 9.93228 0 10.1928 0 10.4559C0 10.7191 0.0502133 10.9796 0.147742 11.2225C0.245271 11.4654 0.388186 11.6858 0.568243 11.8711L8.71349 20.4219C8.89299 20.6067 9.10587 20.7528 9.33993 20.852C9.57398 20.9512 9.82461 21.0015 10.0774 21C10.3303 21.0015 10.5809 20.9512 10.8149 20.852C11.049 20.7528 11.2619 20.6067 11.4414 20.4219C11.7992 20.0485 12 19.5433 12 19.0167C12 18.4902 11.7992 17.985 11.4414 17.6115L4.64086 10.4559Z" fill="white"/>
</svg>
