<svg width="10" height="12" viewBox="0 0 10 12" fill="none" xmlns="http://www.w3.org/2000/svg">
<path d="M5.71002 6.53994C5.61706 6.44621 5.50646 6.37182 5.3846 6.32105C5.26274 6.27028 5.13203 6.24414 5.00002 6.24414C4.86801 6.24414 4.7373 6.27028 4.61544 6.32105C4.49359 6.37182 4.38298 6.44621 4.29002 6.53994L1.29002 9.53994C1.09641 9.72824 0.985539 9.98574 0.981788 10.2558C0.978037 10.5258 1.08172 10.7863 1.27002 10.9799C1.45833 11.1735 1.71583 11.2844 1.98588 11.2882C2.25593 11.2919 2.51641 11.1882 2.71002 10.9999L5.00002 8.65994L7.29002 10.9999C7.38298 11.0937 7.49359 11.1681 7.61544 11.2188C7.7373 11.2696 7.86801 11.2957 8.00002 11.2957C8.13203 11.2957 8.26274 11.2696 8.3846 11.2188C8.50646 11.1681 8.61706 11.0937 8.71002 10.9999C8.80375 10.907 8.87814 10.7964 8.92891 10.6745C8.97968 10.5527 9.00582 10.422 9.00582 10.2899C9.00582 10.1579 8.97968 10.0272 8.92891 9.90536C8.87814 9.7835 8.80375 9.6729 8.71002 9.57994L5.71002 6.53994ZM2.71002 5.45994L5.00002 3.15994L7.29002 5.45994C7.38298 5.55367 7.49359 5.62806 7.61544 5.67883C7.7373 5.7296 7.86801 5.75574 8.00002 5.75574C8.13203 5.75574 8.26274 5.7296 8.3846 5.67883C8.50646 5.62806 8.61706 5.55367 8.71002 5.45994C8.80375 5.36698 8.87814 5.25638 8.92891 5.13452C8.97968 5.01266 9.00582 4.88195 9.00582 4.74994C9.00582 4.61793 8.97968 4.48722 8.92891 4.36536C8.87814 4.2435 8.80375 4.1329 8.71002 4.03994L5.71002 1.03994C5.61706 0.94621 5.50646 0.871816 5.3846 0.821048C5.26274 0.770279 5.13203 0.744141 5.00002 0.744141C4.86801 0.744141 4.7373 0.770279 4.61544 0.821048C4.49359 0.871816 4.38298 0.94621 4.29002 1.03994L1.29002 4.03994C1.10172 4.22824 0.99593 4.48364 0.99593 4.74994C0.99593 5.01624 1.10172 5.27164 1.29002 5.45994C1.47833 5.64824 1.73372 5.75403 2.00002 5.75403C2.26632 5.75403 2.52172 5.64824 2.71002 5.45994V5.45994Z" fill="black"/>
</svg>
