<svg width="24" height="24" viewBox="0 0 24 24" fill="none" xmlns="http://www.w3.org/2000/svg">
<path d="M22.8 4.8C22.4817 4.8 22.1765 4.92643 21.9515 5.15147C21.7264 5.37652 21.6 5.68174 21.6 6V18C21.6 18.9548 21.2207 19.8705 20.5456 20.5456C19.8705 21.2207 18.9548 21.6 18 21.6H6C5.68174 21.6 5.37652 21.7264 5.15147 21.9515C4.92643 22.1765 4.8 22.4817 4.8 22.8C4.8 23.1183 4.92643 23.4235 5.15147 23.6485C5.37652 23.8736 5.68174 24 6 24H18C19.5913 24 21.1174 23.3679 22.2426 22.2426C23.3679 21.1174 24 19.5913 24 18V6C24 5.68174 23.8736 5.37652 23.6485 5.15147C23.4235 4.92643 23.1183 4.8 22.8 4.8ZM19.2 15.6V3.6C19.2 2.64522 18.8207 1.72955 18.1456 1.05442C17.4705 0.379285 16.5548 0 15.6 0H3.6C2.64522 0 1.72955 0.379285 1.05442 1.05442C0.379285 1.72955 0 2.64522 0 3.6V15.6C0 16.5548 0.379285 17.4705 1.05442 18.1456C1.72955 18.8207 2.64522 19.2 3.6 19.2H15.6C16.5548 19.2 17.4705 18.8207 18.1456 18.1456C18.8207 17.4705 19.2 16.5548 19.2 15.6ZM9.6 2.4H12V8.232L11.568 7.872C11.3524 7.6924 11.0806 7.59405 10.8 7.59405C10.5194 7.59405 10.2476 7.6924 10.032 7.872L9.6 8.232V2.4ZM2.4 15.6V3.6C2.4 3.28174 2.52643 2.97652 2.75147 2.75147C2.97652 2.52643 3.28174 2.4 3.6 2.4H7.2V10.8C7.19999 11.0294 7.26572 11.254 7.38943 11.4472C7.51313 11.6404 7.68961 11.794 7.89797 11.89C8.10633 11.986 8.33783 12.0202 8.56504 11.9887C8.79226 11.9571 9.00567 11.8611 9.18 11.712L10.8 10.356L12.42 11.712C12.6374 11.8979 12.914 12 13.2 12C13.3736 11.9988 13.5451 11.962 13.704 11.892C13.9123 11.7956 14.0886 11.6415 14.2119 11.4479C14.3353 11.2544 14.4006 11.0295 14.4 10.8V2.4H15.6C15.9183 2.4 16.2235 2.52643 16.4485 2.75147C16.6736 2.97652 16.8 3.28174 16.8 3.6V15.6C16.8 15.9183 16.6736 16.2235 16.4485 16.4485C16.2235 16.6736 15.9183 16.8 15.6 16.8H3.6C3.28174 16.8 2.97652 16.6736 2.75147 16.4485C2.52643 16.2235 2.4 15.9183 2.4 15.6Z" fill="#676767"/>
</svg>
