<svg width="24" height="24" viewBox="0 0 24 24" fill="none" xmlns="http://www.w3.org/2000/svg">
<path d="M19.2 15.6V3.6C19.2 1.56 17.64 0 15.6 0H3.6C1.56 0 0 1.56 0 3.6V15.6C0 17.64 1.56 19.2 3.6 19.2H15.6C17.64 19.2 19.2 17.64 19.2 15.6ZM14.4 10.8C14.4 11.52 13.92 12 13.2 12C12.96 12 12.6 11.88 12.36 11.76L10.8 10.44L9.12 11.76C8.64 12.24 7.8 12.12 7.44 11.64C7.2 11.4 7.2 11.16 7.2 10.92V2.4H14.4V10.8ZM22.8 4.8C22.08 4.8 21.6 5.28 21.6 6V18C21.6 20.04 20.04 21.6 18 21.6H6C5.28 21.6 4.8 22.08 4.8 22.8C4.8 23.52 5.28 24 6 24H18C21.36 24 24 21.36 24 18V6C24 5.28 23.52 4.8 22.8 4.8Z" fill="white"/>
</svg>
