<svg width="24" height="24" viewBox="0 0 24 24" fill="none" xmlns="http://www.w3.org/2000/svg">
<path d="M21.7777 7.22008L14.4445 0.915623C13.7722 0.325982 12.9019 0 12 0C11.0981 0 10.2279 0.325982 9.55561 0.915623L2.22233 7.22008C1.83412 7.56056 1.52432 7.97824 1.31358 8.44531C1.10284 8.91237 0.995976 9.41811 1.00012 9.92884V20.4043C1.00012 21.3579 1.38642 22.2725 2.07405 22.9468C2.76168 23.6212 3.6943 24 4.66676 24H19.3333C20.3058 24 21.2384 23.6212 21.926 22.9468C22.6137 22.2725 23 21.3579 23 20.4043V9.91685C23.0024 9.40814 22.8947 8.90471 22.684 8.43984C22.4733 7.97496 22.1644 7.55922 21.7777 7.22008ZM14.4445 21.6029H9.55561V15.61C9.55561 15.2922 9.68438 14.9873 9.91359 14.7625C10.1428 14.5378 10.4537 14.4115 10.7778 14.4115H13.2223C13.5464 14.4115 13.8573 14.5378 14.0865 14.7625C14.3157 14.9873 14.4445 15.2922 14.4445 15.61V21.6029ZM20.5555 20.4043C20.5555 20.7222 20.4268 21.027 20.1976 21.2518C19.9683 21.4766 19.6575 21.6029 19.3333 21.6029H16.8889V15.61C16.8889 14.6564 16.5026 13.7418 15.815 13.0675C15.1273 12.3932 14.1947 12.0143 13.2223 12.0143H10.7778C9.80537 12.0143 8.87275 12.3932 8.18512 13.0675C7.49749 13.7418 7.11118 14.6564 7.11118 15.61V21.6029H4.66676C4.34261 21.6029 4.03173 21.4766 3.80252 21.2518C3.57331 21.027 3.44454 20.7222 3.44454 20.4043V9.91685C3.44476 9.74667 3.48193 9.57849 3.55359 9.4235C3.62524 9.2685 3.72972 9.13025 3.8601 9.01793L11.1934 2.72546C11.4164 2.5333 11.7032 2.42733 12 2.42733C12.2969 2.42733 12.5837 2.5333 12.8067 2.72546L20.14 9.01793C20.2704 9.13025 20.3748 9.2685 20.4465 9.4235C20.5181 9.57849 20.5553 9.74667 20.5555 9.91685V20.4043Z" fill="#6563FF"/>
</svg>
