<svg width="22" height="22" viewBox="0 0 22 22" fill="none" xmlns="http://www.w3.org/2000/svg">
<path d="M2.71 1.29C2.61676 1.19676 2.50607 1.1228 2.38425 1.07234C2.26243 1.02188 2.13186 0.995911 2 0.995911C1.86814 0.995911 1.73758 1.02188 1.61575 1.07234C1.49393 1.1228 1.38324 1.19676 1.29 1.29C1.1017 1.47831 0.995911 1.7337 0.995911 2C0.995911 2.2663 1.1017 2.5217 1.29 2.71L4.09 5.5H4C3.20435 5.5 2.44129 5.81607 1.87868 6.37868C1.31607 6.94129 1 7.70435 1 8.5V16.5C1 17.2957 1.31607 18.0587 1.87868 18.6213C2.44129 19.1839 3.20435 19.5 4 19.5H18.08L19.29 20.72C19.383 20.8137 19.4936 20.8881 19.6154 20.9389C19.7373 20.9897 19.868 21.0158 20 21.0158C20.132 21.0158 20.2627 20.9897 20.3846 20.9389C20.5064 20.8881 20.617 20.8137 20.71 20.72C20.8037 20.627 20.8781 20.5164 20.9289 20.3946C20.9797 20.2727 21.0058 20.142 21.0058 20.01C21.0058 19.878 20.9797 19.7473 20.9289 19.6254C20.8781 19.5036 20.8037 19.393 20.71 19.3L2.71 1.29ZM9.2 10.62L11.88 13.3C11.6057 13.4328 11.3047 13.5012 11 13.5C10.4696 13.5 9.96086 13.2893 9.58579 12.9142C9.21072 12.5391 9 12.0304 9 11.5C8.99875 11.1953 9.06716 10.8943 9.2 10.62ZM4 17.5C3.73479 17.5 3.48043 17.3946 3.2929 17.2071C3.10536 17.0196 3 16.7652 3 16.5V8.5C3 8.23479 3.10536 7.98043 3.2929 7.7929C3.48043 7.60536 3.73479 7.5 4 7.5H6.07L7.77 9.19C7.27463 9.85874 7.00495 10.6678 7 11.5C7 12.5609 7.42143 13.5783 8.17158 14.3284C8.92172 15.0786 9.93914 15.5 11 15.5C11.8356 15.4972 12.6485 15.2274 13.32 14.73L16.09 17.5H4ZM18 5.5H16.72L16.41 4.5C16.202 3.91161 15.8157 3.40274 15.3048 3.04425C14.794 2.68577 14.1841 2.49552 13.56 2.5H9.16C8.89479 2.5 8.64043 2.60536 8.4529 2.7929C8.26536 2.98043 8.16 3.23479 8.16 3.5C8.16 3.76522 8.26536 4.01957 8.4529 4.20711C8.64043 4.39465 8.89479 4.5 9.16 4.5H13.56C13.7696 4.49946 13.9742 4.56482 14.1446 4.68684C14.3151 4.80887 14.4429 4.98138 14.51 5.18L15.05 6.81C15.1154 7.01049 15.2425 7.18518 15.4131 7.30911C15.5837 7.43303 15.7891 7.49985 16 7.5H18C18.2652 7.5 18.5196 7.60536 18.7071 7.7929C18.8946 7.98043 19 8.23479 19 8.5V14.34C19 14.6052 19.1054 14.8596 19.2929 15.0471C19.4804 15.2346 19.7348 15.34 20 15.34C20.2652 15.34 20.5196 15.2346 20.7071 15.0471C20.8946 14.8596 21 14.6052 21 14.34V8.5C21 7.70435 20.6839 6.94129 20.1213 6.37868C19.5587 5.81607 18.7957 5.5 18 5.5Z" fill="#6563FF"/>
</svg>
