<svg width="21" height="24" viewBox="0 0 21 24" fill="none" xmlns="http://www.w3.org/2000/svg">
<path d="M7.00554 18.6V19.48C7.00554 20.4136 7.37371 21.3089 8.02905 21.969C8.68438 22.6291 9.57321 23 10.5 23C11.4268 23 12.3156 22.6291 12.971 21.969C13.6263 21.3089 13.9945 20.4136 13.9945 19.48V18.6M2.65964 8.91996C2.65819 7.87628 2.86183 6.84264 3.25881 5.87861C3.65579 4.91459 4.23827 4.03924 4.97266 3.30303C5.70705 2.56681 6.57884 1.9843 7.53777 1.58906C8.4967 1.19382 9.52381 0.993672 10.5599 1.00015C14.8832 1.03253 18.3412 4.65231 18.3412 9.01938V9.79996C18.3412 13.7397 19.1595 16.0259 19.8802 17.2754C19.9579 17.4089 19.9992 17.5607 20 17.7154C20.0008 17.8701 19.9611 18.0223 19.8849 18.1567C19.8087 18.291 19.6986 18.4027 19.5659 18.4806C19.4331 18.5584 19.2823 18.5996 19.1287 18.6H1.87127C1.71764 18.5996 1.56684 18.5584 1.43407 18.4805C1.3013 18.4027 1.19126 18.2909 1.11505 18.1566C1.03885 18.0222 0.999165 17.87 1.00001 17.7152C1.00086 17.5605 1.04221 17.4087 1.11989 17.2752C1.84098 16.0256 2.65963 13.7395 2.65963 9.79996L2.65964 8.91996Z" stroke="black" stroke-width="2" stroke-linecap="round" stroke-linejoin="round"/>
</svg>
