<svg width="24" height="24" viewBox="0 0 24 24" fill="none" xmlns="http://www.w3.org/2000/svg">
<path d="M19.5 13.4353V9.59663C19.5 6.11785 16.875 3.11891 13.25 2.51912V1.19958C13.25 0.479832 12.75 0 12 0C11.25 0 10.75 0.479832 10.75 1.19958V2.51912C7.125 3.11891 4.5 6.11785 4.5 9.59663V13.4353C3 13.9151 2 15.2347 2 16.7941V19.1933C2 19.913 2.5 20.3928 3.25 20.3928H7.125C7.75 22.912 10.5 24.4714 13.125 23.8716C14.875 23.3918 16.25 22.0723 16.75 20.3928H20.75C21.5 20.3928 22 19.913 22 19.1933V16.7941C22 15.2347 21 13.9151 19.5 13.4353ZM12 21.5924C11.125 21.5924 10.25 21.1126 9.875 20.3928H14.25C13.75 21.1126 12.875 21.5924 12 21.5924Z" fill="white"/>
</svg>
