<svg width="24" height="24" viewBox="0 0 24 24" fill="none" xmlns="http://www.w3.org/2000/svg">
<path d="M19.5 13.449V9.62358C19.4982 7.91915 18.8697 6.27032 17.7258 4.9691C16.5818 3.66788 14.9963 2.79823 13.25 2.51416V1.20295C13.25 0.883906 13.1183 0.577931 12.8839 0.352335C12.6495 0.126739 12.3315 0 12 0C11.6685 0 11.3505 0.126739 11.1161 0.352335C10.8817 0.577931 10.75 0.883906 10.75 1.20295V2.51416C9.00367 2.79823 7.41816 3.66788 6.27423 4.9691C5.13031 6.27032 4.50179 7.91915 4.5 9.62358V13.449C3.77056 13.6971 3.13875 14.1564 2.69117 14.7637C2.2436 15.371 2.00217 16.0967 2 16.8413V19.2472C2 19.5662 2.1317 19.8722 2.36612 20.0978C2.60054 20.3234 2.91848 20.4501 3.25 20.4501H7.175C7.46285 21.4694 8.09125 22.3693 8.96325 23.0109C9.83524 23.6524 10.9024 24 12 24C13.0976 24 14.1648 23.6524 15.0368 23.0109C15.9087 22.3693 16.5371 21.4694 16.825 20.4501H20.75C21.0815 20.4501 21.3995 20.3234 21.6339 20.0978C21.8683 19.8722 22 19.5662 22 19.2472V16.8413C21.9978 16.0967 21.7564 15.371 21.3088 14.7637C20.8613 14.1564 20.2294 13.6971 19.5 13.449ZM7 9.62358C7 8.34741 7.52678 7.12351 8.46447 6.22113C9.40215 5.31874 10.6739 4.81179 12 4.81179C13.3261 4.81179 14.5979 5.31874 15.5355 6.22113C16.4732 7.12351 17 8.34741 17 9.62358V13.2324H7V9.62358ZM12 21.6531C11.5637 21.6505 11.1357 21.5381 10.7585 21.3271C10.3814 21.1161 10.0681 20.8137 9.85 20.4501H14.15C13.9319 20.8137 13.6186 21.1161 13.2415 21.3271C12.8643 21.5381 12.4363 21.6505 12 21.6531ZM19.5 18.0442H4.5V16.8413C4.5 16.5222 4.6317 16.2162 4.86612 15.9906C5.10054 15.7651 5.41848 15.6383 5.75 15.6383H18.25C18.5815 15.6383 18.8995 15.7651 19.1339 15.9906C19.3683 16.2162 19.5 16.5222 19.5 16.8413V18.0442Z" fill="#676767"/>
</svg>
