<svg width="21" height="24" viewBox="0 0 21 24" fill="none" xmlns="http://www.w3.org/2000/svg">
<path d="M20.759 16.8822C20.1031 15.7471 19.321 13.5931 19.321 9.77778V8.98926C19.321 4.06869 15.3941 0.0362454 10.5673 0.0002221C10.5447 0.000110989 10.5224 0 10.4998 0C8.15765 0.00306218 5.91261 0.941278 4.25856 2.60826C2.60452 4.27524 1.67696 6.53444 1.67992 8.88889V9.77778C1.67992 13.5929 0.897453 15.7467 0.241169 16.8817C0.0844085 17.1517 0.00122732 17.4584 1.34779e-05 17.771C-0.00120036 18.0835 0.0795961 18.3909 0.234255 18.6621C0.388914 18.9332 0.611967 19.1586 0.880922 19.3155C1.14988 19.4724 1.45522 19.5552 1.76617 19.5556H6.07876C6.07876 20.7343 6.54457 21.8648 7.37372 22.6983C8.20287 23.5317 9.32744 24 10.5 24C11.6726 24 12.7972 23.5317 13.6264 22.6983C14.4555 21.8648 14.9213 20.7343 14.9213 19.5556H19.2339C19.5448 19.5552 19.8501 19.4724 20.119 19.3156C20.388 19.1587 20.611 18.9334 20.7657 18.6623C20.9203 18.3912 21.0012 18.0839 21 17.7713C20.9988 17.4588 20.9157 17.1521 20.759 16.8822ZM10.5 22.2222C9.79673 22.2214 9.12245 21.9402 8.62514 21.4403C8.12782 20.9404 7.84808 20.2626 7.84727 19.5556H13.1528C13.152 20.2626 12.8723 20.9404 12.3749 21.4403C11.8776 21.9402 11.2034 22.2214 10.5 22.2222Z" fill="black"/>
</svg>
