<svg width="20" height="24" viewBox="0 0 20 24" fill="none" xmlns="http://www.w3.org/2000/svg">
<path d="M17.5 13.449V9.62358C17.4982 7.91915 16.8697 6.27032 15.7258 4.9691C14.5818 3.66788 12.9963 2.79823 11.25 2.51416V1.20295C11.25 0.883906 11.1183 0.577931 10.8839 0.352335C10.6495 0.126739 10.3315 0 10 0C9.66848 0 9.35054 0.126739 9.11612 0.352335C8.8817 0.577931 8.75 0.883906 8.75 1.20295V2.51416C7.00367 2.79823 5.41816 3.66788 4.27423 4.9691C3.13031 6.27032 2.50179 7.91915 2.5 9.62358V13.449C1.77056 13.6971 1.13875 14.1564 0.691173 14.7637C0.243598 15.371 0.00217439 16.0967 0 16.8413V19.2472C0 19.5662 0.131696 19.8722 0.366117 20.0978C0.600537 20.3234 0.918479 20.4501 1.25 20.4501H5.175C5.46285 21.4694 6.09125 22.3693 6.96325 23.0109C7.83524 23.6524 8.90237 24 10 24C11.0976 24 12.1648 23.6524 13.0368 23.0109C13.9087 22.3693 14.5371 21.4694 14.825 20.4501H18.75C19.0815 20.4501 19.3995 20.3234 19.6339 20.0978C19.8683 19.8722 20 19.5662 20 19.2472V16.8413C19.9978 16.0967 19.7564 15.371 19.3088 14.7637C18.8613 14.1564 18.2294 13.6971 17.5 13.449V13.449ZM5 9.62358C5 8.34741 5.52678 7.12351 6.46447 6.22113C7.40215 5.31874 8.67392 4.81179 10 4.81179C11.3261 4.81179 12.5979 5.31874 13.5355 6.22113C14.4732 7.12351 15 8.34741 15 9.62358V13.2324H5V9.62358ZM10 21.6531C9.56372 21.6505 9.13572 21.5381 8.75854 21.3271C8.38136 21.1161 8.06814 20.8137 7.85 20.4501H12.15C11.9319 20.8137 11.6186 21.1161 11.2415 21.3271C10.8643 21.5381 10.4363 21.6505 10 21.6531ZM17.5 18.0442H2.5V16.8413C2.5 16.5222 2.6317 16.2162 2.86612 15.9906C3.10054 15.7651 3.41848 15.6383 3.75 15.6383H16.25C16.5815 15.6383 16.8995 15.7651 17.1339 15.9906C17.3683 16.2162 17.5 16.5222 17.5 16.8413V18.0442Z" fill="white"/>
</svg>
