<svg width="23" height="23" viewBox="0 0 23 23" fill="none" xmlns="http://www.w3.org/2000/svg">
<path d="M9.84897 3.28575C11.0519 3.28392 12.232 3.61424 13.2599 4.24045C14.2878 4.86665 15.1236 5.76454 15.6758 6.83557C16.2279 7.9066 16.475 9.10937 16.3898 10.3119C16.3047 11.5144 15.8906 12.6701 15.1931 13.6523L14.5455 14.5641L13.6357 15.213C12.7944 15.8105 11.8244 16.2006 10.8043 16.3516C9.78429 16.5026 8.74309 16.4104 7.76534 16.0822C6.78759 15.7541 5.90089 15.1994 5.1773 14.4632C4.45371 13.7271 3.91365 12.8302 3.60102 11.8455C3.28838 10.8607 3.21199 9.81599 3.37805 8.79612C3.54412 7.77625 3.94795 6.81004 4.55673 5.97601C5.1655 5.14198 5.96205 4.46368 6.88162 3.99622C7.8012 3.52876 8.81786 3.28535 9.84897 3.28575ZM9.84897 8.88405e-06C8.30054 -0.00207435 6.77351 0.362248 5.39212 1.06333C4.01073 1.76441 2.81401 2.78244 1.89936 4.03458C0.984712 5.28671 0.377964 6.73758 0.128494 8.26911C-0.120975 9.80064 -0.00611848 11.3696 0.463718 12.8482C0.933555 14.3268 1.7451 15.6734 2.8323 16.7784C3.91951 17.8833 5.25167 18.7154 6.72036 19.2069C8.18906 19.6984 9.7528 19.8355 11.2843 19.607C12.8159 19.3784 14.2719 18.7907 15.534 17.8917L20.1527 22.5213C20.7904 23.1596 21.8248 23.1596 22.4617 22.5213L22.4855 22.4975C22.6474 22.3516 22.7769 22.1732 22.8655 21.9738C22.9542 21.7745 23 21.5587 23 21.3405C23 21.1223 22.9542 20.9065 22.8655 20.7071C22.7769 20.5078 22.6474 20.3294 22.4855 20.1835L17.8659 15.5547C18.9118 14.081 19.5325 12.3471 19.66 10.5431C19.7875 8.73922 19.4169 6.93494 18.5887 5.32818C17.7606 3.72142 16.507 2.37423 14.9653 1.43436C13.4236 0.494488 11.6535 -0.0017705 9.84897 8.88405e-06Z" fill="white"/>
</svg>
