<svg width="22" height="22" viewBox="0 0 22 22" fill="none" xmlns="http://www.w3.org/2000/svg">
<path d="M9.42075 3.14289C10.5713 3.14114 11.7002 3.4571 12.6834 4.05608C13.6666 4.65506 14.4661 5.51391 14.9942 6.53837C15.5223 7.56284 15.7587 8.71331 15.6772 9.86353C15.5958 11.0137 15.1997 12.1192 14.5325 13.0587L13.9131 13.9308L13.0429 14.5516C12.2382 15.1231 11.3103 15.4962 10.3346 15.6407C9.35888 15.7851 8.36295 15.6969 7.42771 15.383C6.49248 15.0692 5.64433 14.5386 4.9522 13.8344C4.26007 13.1302 3.74349 12.2723 3.44445 11.3304C3.14541 10.3885 3.07234 9.38921 3.23118 8.41368C3.39002 7.43815 3.7763 6.51395 4.35861 5.71619C4.94092 4.91842 5.70283 4.26961 6.58242 3.82247C7.46202 3.37534 8.43447 3.1425 9.42075 3.14289ZM9.42075 8.49779e-06C7.93965 -0.00198417 6.47901 0.346498 5.15768 1.0171C3.83635 1.68769 2.69167 2.66146 1.81678 3.85916C0.941898 5.05686 0.361531 6.44464 0.122908 7.90958C-0.115716 9.37452 -0.00585245 10.8752 0.443557 12.2896C0.892966 13.7039 1.66922 14.992 2.70916 16.0489C3.7491 17.1058 5.02333 17.9017 6.42817 18.3718C7.83302 18.842 9.32877 18.9731 10.7937 18.7545C12.2587 18.5359 13.6514 17.9737 14.8586 17.1138L19.2765 21.5421C19.8865 22.1526 20.8759 22.1526 21.4851 21.5421L21.5078 21.5193C21.6627 21.3798 21.7866 21.2091 21.8714 21.0185C21.9562 20.8278 22 20.6214 22 20.4126C22 20.2039 21.9562 19.9975 21.8714 19.8068C21.7866 19.6162 21.6627 19.4455 21.5078 19.306L17.0892 14.8784C18.0895 13.4688 18.6833 11.8102 18.8052 10.0848C18.9272 8.35926 18.5726 6.63342 17.7805 5.09652C16.9884 3.55962 15.7893 2.27101 14.3146 1.372C12.84 0.472988 11.1468 -0.00169352 9.42075 8.49779e-06Z" fill="#000100"/>
</svg>
