<svg width="22" height="22" viewBox="0 0 22 22" fill="none" xmlns="http://www.w3.org/2000/svg">
<path d="M2.83088 4.25229L2.83087 4.25229L2.82969 4.25378C-0.322476 8.21941 0.39003 14.0125 4.25229 17.1633L4.25428 17.1649C7.57377 19.7803 12.2861 19.8076 15.6346 17.2467L19.241 20.8532C19.6996 21.3118 20.3946 21.3118 20.8532 20.8532C21.3118 20.3946 21.3118 19.6996 20.8532 19.241L17.2471 15.635C20.3041 11.6747 19.6715 5.95436 15.7405 2.82969C11.7748 -0.322476 5.98168 0.39003 2.83088 4.25229ZM10.0471 16.8971C6.22996 16.8971 3.19711 13.8643 3.19711 10.0471C3.19711 6.22996 6.22996 3.19711 10.0471 3.19711C13.8643 3.19711 16.8971 6.22996 16.8971 10.0471C16.8971 13.8643 13.8643 16.8971 10.0471 16.8971Z" fill="#6563FF" stroke="#6563FF" stroke-width="0.3"/>
</svg>
