<svg width="23" height="23" viewBox="0 0 23 23" fill="none" xmlns="http://www.w3.org/2000/svg">
<path d="M9.87694 1C4.98194 1 1 4.98194 1 9.87694C1 14.7719 4.98194 18.7539 9.87694 18.7539C12.0962 18.7539 14.1227 17.9283 15.6799 16.5765L21 21.8966C21.0585 21.9571 21.1285 22.0054 21.2058 22.0387C21.2832 22.0719 21.3664 22.0894 21.4506 22.0901C21.5348 22.0909 21.6183 22.0748 21.6962 22.0429C21.7741 22.011 21.8449 21.964 21.9044 21.9044C21.964 21.8449 22.011 21.7741 22.0429 21.6962C22.0748 21.6183 22.0909 21.5348 22.0901 21.4506C22.0894 21.3664 22.0719 21.2832 22.0387 21.2058C22.0054 21.1285 21.9571 21.0585 21.8966 21L16.5765 15.6799C17.9797 14.0723 18.7532 12.0108 18.7539 9.87694C18.7539 4.98194 14.7719 1 9.87694 1ZM9.87694 2.26813C14.0871 2.26813 17.4857 5.66673 17.4857 9.87694C17.4857 14.0871 14.0871 17.4857 9.87694 17.4857C5.66673 17.4857 2.26813 14.0871 2.26813 9.87694C2.26813 5.66673 5.66673 2.26813 9.87694 2.26813Z" fill="white" stroke="white" stroke-width="0.8"/>
</svg>
