<svg width="24" height="24" viewBox="0 0 24 24" fill="none" xmlns="http://www.w3.org/2000/svg">
<path d="M23.2457 18.7995L19.6371 15.213C18.795 14.3761 17.4719 14.137 16.3893 14.4956L15.1864 13.3001C17.7124 10.0722 17.3516 5.40971 14.3444 2.42092C11.0966 -0.806974 5.68362 -0.806974 2.43584 2.42092C-0.811945 5.64882 -0.811945 11.0286 2.43584 14.2565C5.44304 17.2453 10.1343 17.4844 13.3821 15.0934L14.5849 16.2889C14.1038 17.3649 14.3444 18.68 15.3067 19.5168L18.9153 23.1034C20.1182 24.2989 22.0428 24.2989 23.1254 23.1034C24.208 21.9078 24.3283 19.995 23.2457 18.7995ZM12.7806 12.7024C10.3749 15.0934 6.64592 15.0934 4.24016 12.7024C1.8344 10.3113 1.8344 6.60523 4.24016 4.2142C6.64592 1.82316 10.3749 1.82316 12.7806 4.2142C15.0661 6.60523 15.0661 10.3113 12.7806 12.7024Z" fill="#6563FF"/>
</svg>
