<svg width="21" height="21" viewBox="0 0 21 21" fill="none" xmlns="http://www.w3.org/2000/svg">
<path d="M19.7471 18.3471L16.0471 14.6471C19.1471 10.7471 18.5471 5.04711 14.6471 1.94711C10.7471 -1.15289 5.04711 -0.452886 1.94711 3.34711C-1.15289 7.24711 -0.452886 12.9471 3.34711 16.0471C6.64711 18.6471 11.3471 18.6471 14.6471 16.0471L18.3471 19.7471C18.7471 20.1471 19.3471 20.1471 19.7471 19.7471C20.1471 19.3471 20.1471 18.7471 19.7471 18.3471ZM9.04711 16.0471C5.14711 16.0471 2.04711 12.9471 2.04711 9.04711C2.04711 5.14711 5.14711 2.04711 9.04711 2.04711C12.9471 2.04711 16.0471 5.14711 16.0471 9.04711C16.0471 12.9471 12.9471 16.0471 9.04711 16.0471Z" fill="#6563FF"/>
</svg>
