<svg width="22" height="22" viewBox="0 0 22 22" fill="none" xmlns="http://www.w3.org/2000/svg">
<path d="M9.62341 0C4.31679 0 0 4.31679 0 9.62341C0 14.93 4.31679 19.2468 9.62341 19.2468C12.0293 19.2468 14.2262 18.3518 15.9144 16.8863L20.8182 21.7902C20.8816 21.8558 20.9574 21.9082 21.0413 21.9442C21.1252 21.9802 21.2154 21.9992 21.3066 22C21.3979 22.0008 21.4884 21.9834 21.5729 21.9488C21.6574 21.9143 21.7341 21.8632 21.7987 21.7987C21.8632 21.7341 21.9143 21.6574 21.9488 21.5729C21.9834 21.4884 22.0008 21.3979 22 21.3066C21.9992 21.2154 21.9802 21.1252 21.9442 21.0413C21.9082 20.9574 21.8558 20.8816 21.7902 20.8182L16.8863 15.9144C18.4076 14.1716 19.2461 11.9368 19.2468 9.62341C19.2468 4.31679 14.93 0 9.62341 0ZM9.62341 1.37477C14.1877 1.37477 17.872 5.05916 17.872 9.62341C17.872 14.1877 14.1877 17.872 9.62341 17.872C5.05916 17.872 1.37477 14.1877 1.37477 9.62341C1.37477 5.05916 5.05916 1.37477 9.62341 1.37477Z" fill="black"/>
</svg>
