<svg width="22" height="22" viewBox="0 0 22 22" fill="none" xmlns="http://www.w3.org/2000/svg">
<path d="M19.701 14.861H14.718C14.4263 14.861 14.1465 14.9769 13.9402 15.1832C13.7339 15.3895 13.618 15.6693 13.618 15.961C13.618 16.2527 13.7339 16.5325 13.9402 16.7388C14.1465 16.9451 14.4263 17.061 14.718 17.061H17.358C16.1446 18.329 14.5798 19.2052 12.8647 19.5771C11.1495 19.949 9.36233 19.7996 7.73275 19.148C6.10318 18.4964 4.70566 17.3724 3.71975 15.9205C2.73384 14.4686 2.20459 12.755 2.2 11C2.2 10.7083 2.08411 10.4285 1.87782 10.2222C1.67153 10.0159 1.39174 9.9 1.1 9.9C0.808262 9.9 0.528472 10.0159 0.322183 10.2222C0.115892 10.4285 0 10.7083 0 11C0.00581533 13.1481 0.640443 15.2474 1.82556 17.039C3.01068 18.8306 4.69443 20.236 6.66902 21.0817C8.6436 21.9275 10.8226 22.1766 12.9371 21.7983C15.0516 21.42 17.0091 20.4309 18.568 18.953V20.9C18.568 21.1917 18.6839 21.4715 18.8902 21.6778C19.0965 21.8841 19.3763 22 19.668 22C19.9597 22 20.2395 21.8841 20.4458 21.6778C20.6521 21.4715 20.768 21.1917 20.768 20.9V15.95C20.7653 15.6658 20.6527 15.3937 20.4538 15.1907C20.2549 14.9877 19.9851 14.8695 19.701 14.861ZM14.3 11C14.3 10.3473 14.1065 9.7093 13.7438 9.16662C13.3812 8.62394 12.8659 8.20097 12.2629 7.9512C11.6599 7.70143 10.9963 7.63608 10.3562 7.76341C9.71606 7.89074 9.12806 8.20503 8.66655 8.66655C8.20503 9.12806 7.89074 9.71606 7.76341 10.3562C7.63608 10.9963 7.70143 11.6599 7.9512 12.2629C8.20097 12.8659 8.62394 13.3812 9.16662 13.7438C9.7093 14.1065 10.3473 14.3 11 14.3C11.8752 14.3 12.7146 13.9523 13.3335 13.3335C13.9523 12.7146 14.3 11.8752 14.3 11ZM9.9 11C9.9 10.7824 9.96451 10.5698 10.0854 10.3889C10.2063 10.208 10.378 10.067 10.579 9.98373C10.78 9.90048 11.0012 9.87869 11.2146 9.92114C11.428 9.96358 11.624 10.0683 11.7778 10.2222C11.9317 10.376 12.0364 10.572 12.0789 10.7854C12.1213 10.9988 12.0995 11.22 12.0163 11.421C11.933 11.622 11.792 11.7937 11.6111 11.9146C11.4302 12.0355 11.2176 12.1 11 12.1C10.7083 12.1 10.4285 11.9841 10.2222 11.7778C10.0159 11.5715 9.9 11.2917 9.9 11ZM11 0C8.18002 0.00804341 5.47084 1.09881 3.432 3.047V1.1C3.432 0.808262 3.31611 0.528472 3.10982 0.322183C2.90353 0.115892 2.62374 0 2.332 0C2.04026 0 1.76047 0.115892 1.55418 0.322183C1.34789 0.528472 1.232 0.808262 1.232 1.1V6.05C1.232 6.34174 1.34789 6.62153 1.55418 6.82782C1.76047 7.03411 2.04026 7.15 2.332 7.15H7.282C7.57374 7.15 7.85353 7.03411 8.05982 6.82782C8.26611 6.62153 8.382 6.34174 8.382 6.05C8.382 5.75826 8.26611 5.47847 8.05982 5.27218C7.85353 5.06589 7.57374 4.95 7.282 4.95H4.642C5.85471 3.68266 7.4185 2.80665 9.13264 2.43442C10.8468 2.06219 12.633 2.21072 14.2622 2.86095C15.8913 3.51118 17.2889 4.63343 18.2757 6.08366C19.2624 7.5339 19.7932 9.24592 19.8 11C19.8 11.2917 19.9159 11.5715 20.1222 11.7778C20.3285 11.9841 20.6083 12.1 20.9 12.1C21.1917 12.1 21.4715 11.9841 21.6778 11.7778C21.8841 11.5715 22 11.2917 22 11C22 9.55546 21.7155 8.12506 21.1627 6.79048C20.6099 5.4559 19.7996 4.24327 18.7782 3.22183C17.7567 2.20038 16.5441 1.39013 15.2095 0.837325C13.8749 0.284523 12.4445 0 11 0Z" fill="white"/>
</svg>
